# xmcd
#
# Track frame offsets: 
#        150
#        22930
#        43333
#
# Disc length: 807 seconds
#
# Revision: 11
# Processed by: cddbd v1.5.2PL0 Copyright (c) Steve Scherf et al.
# Submitted via: ExactAudioCopy v1.3
#
DISCID=1d032503
DTITLE=Vanilla Ice - Ice Ice Baby
DYEAR=1990
DGENRE=Hip-Hop
TTITLE0=Ice Ice Baby (Club Mix)
TTITLE1=Ice Ice Baby (Radio Edit)
TTITLE2=Ice Ice Baby (Radio Mix Edit)
EXTD=
EXTT0=
EXTT1=
EXTT2=
PLAYORDER=
